<svg xmlns="http://www.w3.org/2000/svg" viewBox="0 0 40 53" width="40" height="53"><defs><filter id="sh" x="-30%" y="-30%" width="160%" height="160%"><feDropShadow dx="0" dy="0.6" stdDeviation="0.7" flood-color="#000" flood-opacity="0.28"></feDropShadow></filter></defs><g filter="url(#sh)"><path d="M20,52 L30.47,32.40 A17,17 0 1 0 9.53,32.40 L20,52 Z" fill="#5a3d8a" stroke="#ffffff" stroke-width="2" stroke-linejoin="round"></path><path d="M20,52 L30.47,32.40 A17,17 0 1 0 9.53,32.40 L20,52 Z" fill="none" stroke="#2c0f5c" stroke-width="0.6" stroke-opacity="0.55" stroke-linejoin="round"></path></g><g transform="translate(7,6) scale(1.0833333333333333)"><g fill="none" stroke="#ffffff" stroke-width="1.7" stroke-linecap="round" stroke-linejoin="round" color="#ffffff" style="--surface:#5a3d8a"><rect x="5" y="13" width="14" height="8"></rect><path d="M5,13 L12,5 L19,13Z"></path><line x1="12" y1="3" x2="12" y2="6.5"></line><line x1="10.2" y1="4.5" x2="13.8" y2="4.5"></line><path d="M10,21 L10,17 Q12,15.5 14,17 L14,21"></path></g></g></svg>