<svg xmlns="http://www.w3.org/2000/svg" viewBox="0 0 40 53" width="40" height="53"><defs><filter id="sh" x="-30%" y="-30%" width="160%" height="160%"><feDropShadow dx="0" dy="0.6" stdDeviation="0.7" flood-color="#000" flood-opacity="0.28"></feDropShadow></filter></defs><g filter="url(#sh)"><path d="M20,52 L30.47,32.40 A17,17 0 1 0 9.53,32.40 L20,52 Z" fill="#9c1c1c" stroke="#ffffff" stroke-width="2" stroke-linejoin="round"></path><path d="M20,52 L30.47,32.40 A17,17 0 1 0 9.53,32.40 L20,52 Z" fill="none" stroke="#6e0000" stroke-width="0.6" stroke-opacity="0.55" stroke-linejoin="round"></path></g><g transform="translate(7,6) scale(1.0833333333333333)"><g fill="none" stroke="#ffffff" stroke-width="1.7" stroke-linecap="round" stroke-linejoin="round" color="#ffffff" style="--surface:#9c1c1c"><path d="M12,20 C12,20 4,14.4 4,9.1 C4,6.3 6.1,4.4 8.5,4.4 C10.1,4.4 11.4,5.3 12,6.6 C12.6,5.3 13.9,4.4 15.5,4.4 C17.9,4.4 20,6.3 20,9.1 C20,14.4 12,20 12,20 Z" fill="currentColor" stroke="none"></path><path d="M12,6.2 L10.2,9.6 L12.9,11.9 L10.5,15.1 L11.7,17.8" stroke="var(--surface,#fff)" stroke-width="1.8" fill="none" stroke-linecap="round" stroke-linejoin="round"></path></g></g></svg>