<svg xmlns="http://www.w3.org/2000/svg" viewBox="0 0 40 53" width="40" height="53"><defs><filter id="sh" x="-30%" y="-30%" width="160%" height="160%"><feDropShadow dx="0" dy="0.6" stdDeviation="0.7" flood-color="#000" flood-opacity="0.28"></feDropShadow></filter></defs><g filter="url(#sh)"><path d="M20,52 L30.47,32.40 A17,17 0 1 0 9.53,32.40 L20,52 Z" fill="#5a3d8a" stroke="#ffffff" stroke-width="2" stroke-linejoin="round"></path><path d="M20,52 L30.47,32.40 A17,17 0 1 0 9.53,32.40 L20,52 Z" fill="none" stroke="#2c0f5c" stroke-width="0.6" stroke-opacity="0.55" stroke-linejoin="round"></path></g><g transform="translate(7,6) scale(1.0833333333333333)"><g fill="none" stroke="#ffffff" stroke-width="1.7" stroke-linecap="round" stroke-linejoin="round" color="#ffffff" style="--surface:#5a3d8a"><path fill-rule="evenodd" d="M10.07,2.00 L10.95,1.82 L11.47,2.70 L11.12,7.26 L9.02,8.32 L7.96,13.23 L9.02,11.82 L9.72,8.67 L10.60,8.49 L11.12,9.02 L11.47,9.72 L11.12,17.79 L7.44,21.82 L3.75,17.79 L6.21,16.04 L7.26,9.02 L10.07,2.35ZM12.53,2.00 L13.58,2.00 L16.39,9.02 L17.44,16.04 L19.89,17.79 L16.21,21.82 L12.53,17.79 L12.18,16.74 L12.53,9.02 L13.05,8.49 L13.93,8.67 L14.63,11.82 L15.68,13.23 L14.63,8.32 L12.53,7.26 L12.18,5.16 L12.53,2.35Z" fill="currentColor" stroke="none"></path></g></g></svg>